<svg width="250" xmlns="http://www.w3.org/2000/svg" height="250" id="screenshot-72c99f0e-8294-80cf-8005-d6adfc1cd9b5" viewBox="0 0 250 250" xmlns:xlink="http://www.w3.org/1999/xlink" fill="none" version="1.1"><g id="shape-72c99f0e-8294-80cf-8005-d6adfc1cd9b5"><defs><clipPath id="frame-clip-72c99f0e-8294-80cf-8005-d6adfc1cd9b5-render-1" class="frame-clip frame-clip-def"><rect rx="0" ry="0" x="0" y="0" width="250" height="250" transform="matrix(1.000000, 0.000000, 0.000000, 1.000000, 0.000000, 0.000000)"/></clipPath></defs><g><g><g clip-path="url(#frame-clip-72c99f0e-8294-80cf-8005-d6adfc1cd9b5-render-1)" fill="none"><g class="fills" id="fills-72c99f0e-8294-80cf-8005-d6adfc1cd9b5"><rect rx="0" ry="0" x="0" y="0" width="250" height="250" transform="matrix(1.000000, 0.000000, 0.000000, 1.000000, 0.000000, 0.000000)" class="frame-background"/></g><g class="frame-children"><g id="shape-e1967802-9b5a-8036-8005-da4db79efbdb"><g><g><g fill="none"><g class="fills" id="fills-e1967802-9b5a-8036-8005-da4db79efbdb"><rect rx="0" ry="0" x="35.00000000000002" y="88" width="179.99999999999997" height="75" transform="matrix(1.000000, 0.000000, 0.000000, 1.000000, 0.000000, 0.000000)" class="frame-background"/></g><g class="frame-children"><g id="shape-e1967802-9b5a-8036-8005-da3ab43843d1"><g class="fills" id="fills-e1967802-9b5a-8036-8005-da3ab43843d1"><rect rx="0" ry="0" x="195" y="88" transform="matrix(1.000000, 0.000000, 0.000000, 1.000000, 0.000000, 0.000000)" width="10" height="75" style="fill: rgb(225, 122, 42); fill-opacity: 1;"/></g></g><g id="shape-e1967802-9b5a-8036-8005-da3af77e8c5b"><g class="fills" id="fills-e1967802-9b5a-8036-8005-da3af77e8c5b"><path d="M205.000,88.000L205.000,163.000L215.000,153.000L215.000,96.000L205.000,88.000Z" style="fill: rgb(225, 122, 42); fill-opacity: 1;"/></g></g><g id="shape-e1967802-9b5a-8036-8005-da3f23a70c74"><g class="fills" id="fills-e1967802-9b5a-8036-8005-da3f23a70c74"><rect rx="0" ry="0" x="45" y="88" transform="matrix(1.000000, 0.000000, 0.000000, 1.000000, 0.000000, 0.000000)" width="10" height="75" style="fill: rgb(49, 222, 185); fill-opacity: 1;"/></g></g><g id="shape-e1967802-9b5a-8036-8005-da3f312e7b9a"><g class="fills" id="fills-e1967802-9b5a-8036-8005-da3f312e7b9a"><path d="M45.000,88.000L45.000,163.000L35.000,153.000L35.000,96.000L45.000,88.000Z" style="fill: rgb(49, 222, 185); fill-opacity: 1;"/></g></g><g id="shape-e1967802-9b5a-8036-8005-da3a245d3a1c"><g class="fills" id="fills-e1967802-9b5a-8036-8005-da3a245d3a1c"><rect rx="0" ry="0" x="65" y="95" transform="matrix(1.000000, 0.000000, 0.000000, 1.000000, 0.000000, 0.000000)" width="120" height="60" style="fill: rgb(43, 146, 224); fill-opacity: 1;"/></g></g></g></g></g></g></g></g></g></g></g></g></svg>